<svg t="1619024497291" class="icon" viewBox="0 0 1024 1024" version="1.1" xmlns="http://www.w3.org/2000/svg" p-id="2043" width="200" height="200"><path d="M512 981.333333C253.013333 981.333333 42.666667 770.986667 42.666667 512S253.013333 42.666667 512 42.666667s469.333333 210.346667 469.333333 469.333333-210.346667 469.333333-469.333333 469.333333z m0-844.501333A375.125333 375.125333 0 0 0 136.832 512 375.125333 375.125333 0 0 0 512 887.168 375.125333 375.125333 0 0 0 887.168 512 375.125333 375.125333 0 0 0 512 136.832z" p-id="2044" fill="#8a8a8a"></path><path d="M512 568.490667a46.250667 46.250667 0 0 1-47.104-47.061334V301.653333c0-26.709333 20.437333-47.104 47.104-47.104 26.709333 0 47.104 20.394667 47.104 47.061334v218.197333c0 26.666667-20.394667 48.64-47.104 48.64zM512 722.346667a62.805333 62.805333 0 1 0 0-125.568 62.805333 62.805333 0 0 0 0 125.568z" p-id="2045" fill="#8a8a8a"></path><path d="M512 981.333333C253.013333 981.333333 42.666667 770.986667 42.666667 512S253.013333 42.666667 512 42.666667s469.333333 210.346667 469.333333 469.333333-210.346667 469.333333-469.333333 469.333333z m0-844.501333A375.125333 375.125333 0 0 0 136.832 512 375.125333 375.125333 0 0 0 512 887.168 375.125333 375.125333 0 0 0 887.168 512 375.125333 375.125333 0 0 0 512 136.832z" p-id="2046" fill="#8a8a8a"></path></svg>